{"title":"Something Evil.wmv","uid":6258887,"size":1392690219,"categoryP":"video","categoryS":"movies","magnet":"?xt=urn:btih:a16e0bd93cc8153564a745393ffe0054a6fa1ce4&amp;dn=Something+Evil.wmv&amp;tr=udp%3A%2F%2Ftracker.openbittorrent.com%3A80&amp;tr=udp%3A%2F%2Fopen.demonii.com%3A1337&amp;tr=udp%3A%2F%2Ftracker.coppersurfer.tk%3A6969&amp;tr=udp%3A%2F%2Fexodus.desync.com%3A6969","seeders":1,"leechers":0,"uploader":"mesahawni","files":1,"time":1300685092,"description":"A young couple moves into a farmhouse in rural Pennsylvania. What they don't know is that there is an unseen presence in the house, and that it wants to take possession of the wife.\n\n\nGeneral\nFormat                           : Windows Media\nFile size                        : 1.30 GiB\nDuration                         : 1h 15mn\nOverall bit rate                 : 2468 Kbps\nMaximum Overall bit rate         : 264 Kbps\nWM/EncodingSettings              : Lavf52.64.0\n\nVideo\nID                               : 1\nFormat                           : WMV1\nCodec ID                         : WMV1\nCodec ID/Info                    : Windows Media Video 7\nDescription of the codec         : wmv1\nDuration                         : 1h 15mn\nBit rate                         : 2 298 Kbps\nWidth                            : 854 pixels\nHeight                           : 470 pixels\nDisplay aspect ratio             : 16:9\nFrame rate                       : 29.970 fps\nBit depth                        : 8 bits\nBits/(Pixel*Frame)               : 0.191\nStream size                      : 1.21 GiB (93%)\n\nAudio\nID                               : 2\nFormat                           : WMA\nFormat version                   : Version 2\nCodec ID                         : 161\nCodec ID/Info                    : Windows Media Audio\nDescription of the codec         : Windows Media Audio V8\nDuration                         : 1h 15mn\nBit rate                         : 64.0 Kbps\nChannel(s)                       : 2 channels\nSampling rate                    : 44.1 KHz\nBit depth                        : 16 bits\nStream size                      : 34.4 MiB (3%)\n\n","torrent":{"xt":"urn:btih:a16e0bd93cc8153564a745393ffe0054a6fa1ce4","amp;dn":"Something+Evil.wmv","amp;tr":["udp%3A%2F%2Ftracker.openbittorrent.com%3A80","udp%3A%2F%2Fopen.demonii.com%3A1337","udp%3A%2F%2Ftracker.coppersurfer.tk%3A6969","udp%3A%2F%2Fexodus.desync.com%3A6969"],"infoHash":"a16e0bd93cc8153564a745393ffe0054a6fa1ce4","infoHashBuffer":{"type":"Buffer","data":[161,110,11,217,60,200,21,53,100,167,69,57,63,254,0,84,166,250,28,228]},"announce":[],"urlList":[]}}